<svg height="512pt" viewBox="0 0 512 512" width="512pt" xmlns="http://www.w3.org/2000/svg" xmlns:xlink="http://www.w3.org/1999/xlink"><linearGradient id="a" gradientTransform="matrix(1 0 0 -1 0 -9462)" gradientUnits="userSpaceOnUse" x1="0" x2="512" y1="-9718" y2="-9718"><stop offset="0" stop-color="#00f1ff"/><stop offset=".231" stop-color="#00d8ff"/><stop offset=".5138" stop-color="#00c0ff"/><stop offset=".7773" stop-color="#00b2ff"/><stop offset="1" stop-color="#00adff"/></linearGradient><path d="m512 256c0 141.386719-114.613281 256-256 256s-256-114.613281-256-256 114.613281-256 256-256 256 114.613281 256 256zm0 0" fill="url(#a)"/><g fill="#fff"><path d="m418 330.394531c-8.285156 0-15 6.714844-15 15v15.101563c0 14.4375-11.746094 26.1875-26.1875 26.1875h-15.101562c-8.285157 0-15 6.714844-15 15s6.714843 15 15 15h15.101562c30.980469 0 56.1875-25.207032 56.1875-56.1875v-15.101563c0-8.285156-6.714844-15-15-15zm0 0"/><path d="m376.8125 96.316406h-15.101562c-8.285157 0-15 6.71875-15 15 0 8.285156 6.714843 15 15 15h15.101562c14.441406 0 26.1875 11.75 26.1875 26.1875v15.101563c0 8.285156 6.714844 15 15 15s15-6.714844 15-15v-15.101563c0-30.980468-25.203125-56.1875-56.1875-56.1875zm0 0"/><path d="m418 214.386719c-8.285156 0-15 6.714843-15 15v54.914062c0 8.285157 6.714844 15 15 15s15-6.714843 15-15v-54.914062c0-8.285157-6.714844-15-15-15zm0 0"/><path d="m150.289062 386.683594h-15.101562c-14.441406 0-26.1875-11.75-26.1875-26.1875v-15.101563c0-8.285156-6.71875-15-15-15-8.285156 0-15 6.714844-15 15v15.101563c0 30.980468 25.203125 56.1875 56.1875 56.1875h15.101562c8.28125 0 15-6.71875 15-15 0-8.285156-6.71875-15-15-15zm0 0"/><path d="m150.289062 96.316406h-15.101562c-30.984375 0-56.1875 25.207032-56.1875 56.1875v15.101563c0 8.285156 6.714844 15 15 15s15-6.714844 15-15v-15.101563c0-14.4375 11.746094-26.1875 26.1875-26.1875h15.101562c8.285157 0 15-6.714844 15-15s-6.71875-15-15-15zm0 0"/><path d="m94 299.300781c8.285156 0 15-6.714843 15-15v-54.914062c0-8.285157-6.714844-15-15-15s-15 6.714843-15 15v54.914062c0 8.285157 6.714844 15 15 15zm0 0"/><path d="m296.5 96.316406h-82.371094c-8.285156 0-15 6.71875-15 15 0 8.285156 6.714844 15 15 15h82.371094c8.285156 0 15-6.714844 15-15 0-8.28125-6.714844-15-15-15zm0 0"/><path d="m296.5 386.683594h-82.371094c-8.285156 0-15 6.714844-15 15 0 8.28125 6.714844 15 15 15h82.371094c8.285156 0 15-6.71875 15-15 0-8.285156-6.714844-15-15-15zm0 0"/></g></svg>